<svg id="Layer_1" data-name="Layer 1" xmlns="http://www.w3.org/2000/svg" viewBox="0 0 127.21 146.77">
<title>APH-logo</title><polygon class="cls-1" points="84.8 110.04 106.01 73.32 127.21 110.04 84.8 110.04"/><polygon class="cls-2" points="0 110.04 21.2 73.32 42.41 110.04 0 110.04"/><polygon class="cls-3" points="42.4 110.04 63.6 146.77 84.81 110.04 42.4 110.04"/><polygon class="cls-4" points="21.2 73.31 42.41 110.04 63.61 73.31 21.2 73.31"/><polygon class="cls-5" points="63.6 73.31 84.81 110.04 106.01 73.31 63.6 73.31"/><polygon class="cls-6" points="63.6 73.37 84.81 36.65 106.01 73.37 63.6 73.37"/><polygon class="cls-7" points="42.41 36.58 63.61 73.3 84.81 36.58 42.41 36.58"/><polygon class="cls-8" points="42.41 36.72 63.61 0 84.81 36.72 42.41 36.72"/><polygon class="cls-9" points="21.2 73.31 42.41 36.58 63.61 73.31 21.2 73.31"/></svg>
